<mxfile host="app.diagrams.net" modified="2023-05-26T00:22:08.793Z" agent="Mozilla/5.0 (Windows NT 10.0; Win64; x64) AppleWebKit/537.36 (KHTML, like Gecko) Chrome/112.0.0.0 Safari/537.36 OPR/98.0.0.0 (Edition std-1)" etag="TM3HFJv-H1hzl1jzOsoj" version="21.3.4" type="onedrive">
  <diagram name="Página-1" id="eyjwuWEeAOPNkWT7B96Y">
    <mxGraphModel grid="1" page="1" gridSize="10" guides="1" tooltips="1" connect="1" arrows="1" fold="1" pageScale="1" pageWidth="827" pageHeight="1169" math="0" shadow="0">
      <root>
        <mxCell id="0" />
        <mxCell id="1" parent="0" />
        <mxCell id="jUs3mJKYbhb78cfY67rJ-1" style="edgeStyle=orthogonalEdgeStyle;rounded=0;orthogonalLoop=1;jettySize=auto;html=1;entryX=0.5;entryY=0;entryDx=0;entryDy=0;" edge="1" parent="1" source="jUs3mJKYbhb78cfY67rJ-2" target="jUs3mJKYbhb78cfY67rJ-4">
          <mxGeometry relative="1" as="geometry" />
        </mxCell>
        <mxCell id="jUs3mJKYbhb78cfY67rJ-2" value="Início" style="ellipse;whiteSpace=wrap;html=1;" vertex="1" parent="1">
          <mxGeometry x="335" y="310" width="120" height="80" as="geometry" />
        </mxCell>
        <mxCell id="jUs3mJKYbhb78cfY67rJ-3" style="edgeStyle=orthogonalEdgeStyle;rounded=0;orthogonalLoop=1;jettySize=auto;html=1;" edge="1" parent="1" source="jUs3mJKYbhb78cfY67rJ-4" target="jUs3mJKYbhb78cfY67rJ-7">
          <mxGeometry relative="1" as="geometry" />
        </mxCell>
        <mxCell id="jUs3mJKYbhb78cfY67rJ-4" value="&lt;div&gt;nome,&amp;nbsp;&lt;span style=&quot;background-color: initial;&quot;&gt;n1b1,&amp;nbsp;&lt;/span&gt;&lt;span style=&quot;background-color: initial;&quot;&gt;n2b1,&amp;nbsp;&lt;/span&gt;&lt;span style=&quot;background-color: initial;&quot;&gt;n1b2,&amp;nbsp;&lt;/span&gt;&lt;span style=&quot;background-color: initial;&quot;&gt;n2b2,&amp;nbsp;&lt;/span&gt;&lt;span style=&quot;background-color: initial;&quot;&gt;n1b3,&amp;nbsp;&lt;/span&gt;&lt;span style=&quot;background-color: initial;&quot;&gt;n2b3,&amp;nbsp;&lt;/span&gt;&lt;span style=&quot;background-color: initial;&quot;&gt;n1b4,&amp;nbsp;&lt;/span&gt;&lt;span style=&quot;background-color: initial;&quot;&gt;n2b4,&amp;nbsp;&lt;/span&gt;&lt;span style=&quot;background-color: initial;&quot;&gt;mediafinal&lt;/span&gt;&lt;/div&gt;" style="shape=parallelogram;perimeter=parallelogramPerimeter;whiteSpace=wrap;html=1;fixedSize=1;" vertex="1" parent="1">
          <mxGeometry x="200" y="450" width="390" height="60" as="geometry" />
        </mxCell>
        <mxCell id="jUs3mJKYbhb78cfY67rJ-5" style="edgeStyle=orthogonalEdgeStyle;rounded=0;orthogonalLoop=1;jettySize=auto;html=1;entryX=0.5;entryY=0;entryDx=0;entryDy=0;" edge="1" parent="1" source="jUs3mJKYbhb78cfY67rJ-7" target="jUs3mJKYbhb78cfY67rJ-11">
          <mxGeometry relative="1" as="geometry" />
        </mxCell>
        <mxCell id="jUs3mJKYbhb78cfY67rJ-6" style="edgeStyle=orthogonalEdgeStyle;rounded=0;orthogonalLoop=1;jettySize=auto;html=1;entryX=0.5;entryY=0;entryDx=0;entryDy=0;" edge="1" parent="1" source="jUs3mJKYbhb78cfY67rJ-7" target="jUs3mJKYbhb78cfY67rJ-9">
          <mxGeometry relative="1" as="geometry" />
        </mxCell>
        <mxCell id="jUs3mJKYbhb78cfY67rJ-7" value="(mediafinal &amp;gt;= 7)" style="rhombus;whiteSpace=wrap;html=1;" vertex="1" parent="1">
          <mxGeometry x="305" y="580" width="180" height="80" as="geometry" />
        </mxCell>
        <mxCell id="jUs3mJKYbhb78cfY67rJ-8" style="edgeStyle=orthogonalEdgeStyle;rounded=0;orthogonalLoop=1;jettySize=auto;html=1;" edge="1" parent="1" source="jUs3mJKYbhb78cfY67rJ-9" target="jUs3mJKYbhb78cfY67rJ-12">
          <mxGeometry relative="1" as="geometry" />
        </mxCell>
        <mxCell id="jUs3mJKYbhb78cfY67rJ-9" value="&lt;div&gt;&lt;font style=&quot;font-size: 10px;&quot;&gt;(&quot;O aluno &quot;, nome,&quot; foi Aprovado!!&quot;)&lt;/font&gt;&lt;/div&gt;&lt;div&gt;&lt;font style=&quot;font-size: 10px;&quot;&gt;&amp;nbsp; &amp;nbsp;(&quot;A média final do aluno &quot;, nome, &quot; foi&quot;, mediafinal)&lt;/font&gt;&lt;/div&gt;" style="shape=document;whiteSpace=wrap;html=1;boundedLbl=1;" vertex="1" parent="1">
          <mxGeometry x="80" y="650" width="210" height="80" as="geometry" />
        </mxCell>
        <mxCell id="jUs3mJKYbhb78cfY67rJ-10" style="edgeStyle=orthogonalEdgeStyle;rounded=0;orthogonalLoop=1;jettySize=auto;html=1;" edge="1" parent="1" source="jUs3mJKYbhb78cfY67rJ-11" target="jUs3mJKYbhb78cfY67rJ-12">
          <mxGeometry relative="1" as="geometry" />
        </mxCell>
        <mxCell id="jUs3mJKYbhb78cfY67rJ-11" value="&lt;div&gt;&lt;font style=&quot;font-size: 10px;&quot;&gt;(&quot;O aluno &quot;, nome,&quot; foi Reprovado&quot;)&lt;/font&gt;&lt;/div&gt;&lt;div&gt;&lt;span style=&quot;font-size: 10px;&quot;&gt;&amp;nbsp; &amp;nbsp;(&quot;A média final do aluno &quot;, nome, &quot; foi&quot;, mediafinal)&lt;/span&gt;&lt;/div&gt;" style="shape=document;whiteSpace=wrap;html=1;boundedLbl=1;" vertex="1" parent="1">
          <mxGeometry x="495" y="650" width="225" height="80" as="geometry" />
        </mxCell>
        <mxCell id="jUs3mJKYbhb78cfY67rJ-12" value="Fim" style="ellipse;whiteSpace=wrap;html=1;" vertex="1" parent="1">
          <mxGeometry x="335" y="780" width="120" height="80" as="geometry" />
        </mxCell>
      </root>
    </mxGraphModel>
  </diagram>
</mxfile>
